<?xml version="1.0" standalone="no"?>
<!DOCTYPE svg PUBLIC "-//W3C//DTD SVG 20010904//EN"
 "http://www.w3.org/TR/2001/REC-SVG-20010904/DTD/svg10.dtd">
<svg version="1.0" xmlns="http://www.w3.org/2000/svg"
 width="512.000000pt" height="512.000000pt" viewBox="0 0 512.000000 512.000000"
 preserveAspectRatio="xMidYMid meet">
<metadata>
Created by potrace 1.14, written by Peter Selinger 2001-2017
</metadata>
<g transform="translate(0.000000,512.000000) scale(0.100000,-0.100000)"
fill="#000000" stroke="none">
<path d="M282 4811 c-76 -26 -131 -77 -173 -158 l-24 -48 0 -965 0 -965 27
-51 c28 -53 87 -112 138 -139 32 -16 32 -23 0 -60 -25 -29 -51 -104 -54 -155
-3 -57 16 -127 92 -325 52 -139 301 -802 491 -1314 78 -210 106 -255 186 -299
102 -56 168 -56 331 3 71 25 138 50 149 55 11 4 47 18 80 30 33 13 76 29 95
36 19 7 197 74 395 148 198 74 602 224 897 335 296 111 541 201 544 201 3 0
20 6 37 14 18 8 228 87 467 176 239 89 462 173 495 185 33 13 112 42 175 65
63 24 129 48 145 55 17 7 46 18 65 25 76 29 131 80 171 159 20 38 24 61 23
126 0 70 -6 95 -47 200 -25 66 -93 248 -152 405 -58 157 -112 301 -120 320 -8
19 -48 127 -89 239 l-76 203 0 638 c-1 634 -1 639 -22 691 -30 72 -101 141
-172 168 l-57 21 -1982 0 c-1888 -1 -1984 -2 -2035 -19z"/>
</g>
</svg>
